<?xml version="1.0" encoding="UTF-8"?>
<svg id="Capa_1" data-name="Capa 1" xmlns="http://www.w3.org/2000/svg" viewBox="0 0 100 100">
  <defs>
    <style>
      .cls-1 {
        fill: #000;
        stroke-width: 0px;
      }
    </style>
  </defs>
  <path class="cls-1" d="M49.93,58.55h0c10.28,0,18.65-8.35,18.64-18.61,0-5-1.95-9.69-5.47-13.21-3.53-3.52-8.23-5.46-13.24-5.46h-.03c-10.23.01-18.55,8.36-18.56,18.61,0,4.99,1.94,9.68,5.46,13.21,3.52,3.53,8.21,5.47,13.19,5.47ZM51.09,38.71v-5.17l5.87-.28.67,5.44h-6.54ZM57.62,41.08l-.65,5.45-5.85-.27v-5.18h6.51ZM51.27,55.93l-.17.06v-7.47l4.98.22v.11c.11,2.11-2.78,6.34-4.81,7.07ZM62.98,49.66c-1.02,1.88-4.74,4.83-6.63,5.25l-.24.05.57-1.33c.57-1.34,1.16-2.73,1.77-4.12.09-.2.38-.48.62-.48,0,0,.02,0,.03,0,.96.09,1.89.2,2.88.33l1.1.14-.09.16ZM66.25,41.22c-.11,1.97-.62,3.87-1.57,5.8-.09.18-.39.34-.62.34-.02,0-.03,0-.05,0-1.19-.14-2.41-.31-3.59-.47l-1.19-.16.65-5.64h6.37v.13ZM64.73,32.89c.9,1.86,1.39,3.73,1.52,5.72v.13s-6.37,0-6.37,0l-.66-5.67,1.16-.16c1.2-.17,2.44-.34,3.66-.48.23-.03.57.23.68.45ZM56.28,24.8c2.71,1.15,4.93,2.89,6.78,5.31l.13.17-4.39.56-2.81-6.17.3.12ZM51.06,23.87l.15.03c1.87.4,4.68,4.4,4.92,7.02v.13s-5.01.23-5.01.23v-.12c-.02-.08-.03-.14-.04-.2-.01-.1-.02-.17-.02-.24,0-2.23,0-4.47,0-6.71v-.15ZM48.77,55.89h-.13c-1.61-.04-4.33-3.9-4.93-6.99l-.03-.14,5.09-.23v7.37ZM48.76,46.26l-5.86.27v-.12s-.67-5.34-.67-5.34h6.53v5.18ZM42.24,38.73l.65-5.45,5.87.26v5.19h-6.52ZM48.57,23.76l.19-.11v7.63l-5.24-.24.06-.16c1.07-2.95,2.19-5.53,4.99-7.13ZM36.87,30.14c1.26-2.05,4.39-4.52,6.69-5.28l.27-.09-2.76,6.06-4.3-.52.1-.17ZM33.61,38.59c.12-1.99.63-3.87,1.55-5.75.11-.22.48-.43.71-.4,1.18.14,2.38.3,3.54.46l1.22.17-.65,5.65h-6.38v-.13ZM34.64,45.74c-.33-1-.58-2.01-.85-3.08-.12-.47-.24-.94-.36-1.43l-.04-.16h6.59l.65,5.65-1.15.16c-.8.11-1.62.23-2.43.33-.46.06-.8.1-1.07.1-.74,0-.92-.33-1.33-1.57ZM41.07,48.97l2.7,5.96-.22-.02c-1.57-.17-5.2-3-6.71-5.22l-.11-.17,4.33-.55Z"/>
  <path class="cls-1" d="M33.24,56.63c4.47,4.46,10.4,6.92,16.69,6.92h.03c6.3,0,12.24-2.48,16.71-6.96s6.93-10.42,6.92-16.72c-.02-13.03-10.63-23.62-23.65-23.62h-.03c-13.04.02-23.64,10.64-23.63,23.68,0,6.3,2.48,12.23,6.96,16.7ZM34.78,24.81c4.04-4.06,9.42-6.29,15.12-6.3h.03c5.7,0,11.06,2.22,15.11,6.27,4.05,4.05,6.29,9.42,6.29,15.12,0,5.71-2.23,11.08-6.28,15.13-4.05,4.05-9.42,6.28-15.12,6.28h-.01c-11.77,0-21.36-9.59-21.39-21.35-.01-5.71,2.21-11.08,6.25-15.14Z"/>
  <path class="cls-1" d="M78.44,36.76c-1.43-13.73-13.04-24.69-27.02-25.48-14-.79-26.39,8.66-29.47,22.48-1.52,6.83-.64,13.38,2.64,19.47,4.3,8.01,11.14,13.03,20.32,14.93l.1.02v3.13h-.47c-.11,0-.21,0-.31,0-1.39.01-1.68.31-1.69,1.66,0,4.72,0,9.44,0,14.15,0,1.06.39,1.45,1.43,1.45,3.96,0,7.93,0,11.89,0,1.05,0,1.45-.39,1.45-1.43,0-1.42,0-2.83,0-4.25v-1.77s0-2.22,0-2.22c0-2.07,0-4.15,0-6.22,0-.95-.39-1.35-1.35-1.37-.22,0-.44,0-.67,0h-.45s0-3.12,0-3.12l.1-.02c14.72-2.67,25.04-16.47,23.49-31.41ZM55.03,73.62v12.67h-10.17v-12.67h10.17ZM47.35,71.28v-2.68h5.15v2.68h-5.15ZM49.95,66.3h-.09c-14.56-.05-26.37-11.91-26.34-26.45.03-14.54,11.87-26.35,26.4-26.35h.04c7.06,0,13.7,2.78,18.69,7.81,4.99,5.01,7.72,11.65,7.69,18.68-.06,14.53-11.89,26.31-26.39,26.31Z"/>
</svg>