<?xml version="1.0" encoding="UTF-8"?>
<svg id="Capa_1" data-name="Capa 1" xmlns="http://www.w3.org/2000/svg" viewBox="0 0 100 100">
  <defs>
    <style>
      .cls-1 {
        fill: #000;
        stroke-width: 0px;
      }
    </style>
  </defs>
  <path class="cls-1" d="M58.07,14.63c.58.41.7.99.7,1.67-.02,8.34-.01,16.68-.01,25.02v.88h.86c6.16,0,12.32,0,18.47,0,1.3,0,1.62.33,1.62,1.63,0,1.82,0,3.63,0,5.45,0,1.46-.26,1.72-1.72,1.75-.13,0-.27.01-.45.02v31.97c.24,0,.46,0,.68,0,1.82,0,3.63,0,5.45,0,1,0,1.53.37,1.54,1.08.01.74-.52,1.12-1.57,1.12-.02,0-.05,0-.07,0-22.43,0-44.85,0-67.28,0-.68,0-1.26-.12-1.67-.7v-.83c.41-.58.99-.74,1.67-.7.66.04,1.33,0,2,0h1.84v-1.01c0-18.24,0-36.48,0-54.72,0-1.31.33-1.63,1.62-1.63,4.71,0,9.42,0,14.13,0h.8v-.81c0-2.85.01-5.7-.01-8.55,0-.69.12-1.26.7-1.67h20.68ZM55.4,82.99v-31.96c-.23,0-.41,0-.59,0-1.22-.01-1.56-.35-1.56-1.56,0-1.93,0-3.86,0-5.79,0-1.11.38-1.47,1.5-1.48.59,0,1.18,0,1.75,0v-25.34h-17.55v8.79c.52,0,1,0,1.48,0,1.5,0,1.78.27,1.78,1.75,0,18.22,0,36.45,0,54.67v.91h13.19ZM26.22,27.89c.19.33.47.59.49.87.06.87.07,1.75,0,2.61-.04.53-.47.93-.98.86-.38-.05-1-.4-1.03-.68-.15-1.23-.51-2.53.39-3.64h-2.69v55.08h2.71c-.18-.29-.47-.54-.49-.81-.06-.91-.08-1.84,0-2.74.05-.53.51-.82,1.05-.8.54.01,1.01.33,1.01.85,0,1.18.47,2.45-.51,3.51h4.44c-.18-.31-.48-.58-.5-.87-.07-.87-.07-1.75,0-2.61.04-.53.46-.85,1-.88.54-.03,1.04.26,1.07.78.06,1.21.47,2.49-.44,3.56h4.37c-.17-.29-.45-.55-.47-.83-.06-.87-.07-1.75,0-2.61.04-.53.47-.94.98-.86.38.05,1,.4,1.03.68.15,1.23.51,2.53-.39,3.64h2.69V27.9h-2.71c.18.29.47.54.49.81.06.91.08,1.84,0,2.74-.05.53-.51.82-1.05.8-.54-.01-1.01-.33-1.01-.86,0-1.18-.47-2.45.51-3.51h-4.44c.18.31.48.58.5.87.07.87.07,1.75,0,2.61-.04.53-.46.85-1,.88-.54.03-1.04-.26-1.07-.78-.07-1.21-.47-2.49.47-3.59h-4.42ZM65.86,83.01c-.17-.4-.43-.76-.46-1.13-.07-.71-.04-1.42-.01-2.13.03-.66.49-1.11,1.08-1.12.59,0,1.06.45,1.1,1.1.03.55.06,1.11,0,1.65-.07.55-.25,1.09-.37,1.6h4.18c-.16-.37-.42-.72-.45-1.1-.07-.7-.04-1.42-.01-2.13.03-.67.49-1.12,1.07-1.13.61-.01,1.08.46,1.11,1.16.02.5,0,1.01.01,1.52.02.63,0,1.23-.7,1.68h2.85v-31.91h-17.56v31.9h2.74c-.18-.24-.45-.43-.46-.64-.05-1-.1-2.01.01-3,.03-.27.63-.66.96-.66.34,0,.93.39.97.66.15,1.23.51,2.53-.42,3.67h4.36ZM77.48,44.46h-21.98v4.33h21.98v-4.33Z"/>
  <path class="cls-1" d="M45.52,45.56c0,.69.02,1.37,0,2.06-.02.71-.45,1.18-1.07,1.2-.63.02-1.12-.47-1.13-1.21-.02-1.4-.02-2.79,0-4.19,0-.71.45-1.18,1.07-1.2.63-.02,1.11.47,1.13,1.21.02.71,0,1.42,0,2.13Z"/>
  <path class="cls-1" d="M49.93,45.52c0-.69-.01-1.37,0-2.06.02-.75.46-1.24,1.1-1.24.64,0,1.09.48,1.1,1.24.02,1.37.02,2.75,0,4.12,0,.76-.46,1.24-1.1,1.24-.64,0-1.08-.48-1.1-1.24-.02-.69,0-1.37,0-2.06Z"/>
  <path class="cls-1" d="M43.31,54.27c0-.66-.01-1.33,0-1.99.02-.76.46-1.24,1.1-1.24.64,0,1.09.49,1.1,1.24.02,1.37.02,2.75,0,4.12,0,.76-.46,1.24-1.1,1.24-.64,0-1.08-.49-1.1-1.24-.02-.71,0-1.42,0-2.13Z"/>
  <path class="cls-1" d="M52.14,54.34c0,.69.01,1.37,0,2.06-.02.76-.46,1.24-1.1,1.24-.64,0-1.09-.48-1.1-1.24-.02-1.37-.02-2.75,0-4.12,0-.75.46-1.24,1.1-1.24.64,0,1.07.48,1.1,1.24,0,.05,0,.09,0,.14,0,.64,0,1.28,0,1.92Z"/>
  <path class="cls-1" d="M52.14,36.67c0,.71.02,1.42,0,2.13-.02.71-.46,1.18-1.07,1.2-.64.02-1.11-.47-1.12-1.21-.02-1.4-.02-2.79,0-4.19,0-.71.46-1.18,1.07-1.2.64-.02,1.1.47,1.12,1.21.02.69,0,1.37,0,2.06Z"/>
  <path class="cls-1" d="M43.31,27.84c0-.69-.02-1.37,0-2.06.02-.75.49-1.23,1.13-1.21.61.02,1.06.49,1.07,1.2.02,1.4.02,2.79,0,4.19-.01.75-.49,1.23-1.12,1.21-.61-.02-1.05-.49-1.07-1.2-.02-.71,0-1.42,0-2.13Z"/>
  <path class="cls-1" d="M43.31,63.12c0-.69-.02-1.37,0-2.06.02-.71.47-1.18,1.08-1.19.61,0,1.1.46,1.11,1.16.02,1.42.02,2.84,0,4.26-.01.71-.47,1.18-1.08,1.19-.64.01-1.09-.47-1.11-1.22-.02-.71,0-1.42,0-2.13Z"/>
  <path class="cls-1" d="M52.14,63.21c0,.69.02,1.37,0,2.06-.02.71-.46,1.18-1.07,1.2-.63.02-1.12-.47-1.13-1.21-.02-1.4-.02-2.79,0-4.19,0-.71.45-1.18,1.07-1.2.63-.02,1.11.47,1.13,1.21.02.71,0,1.42,0,2.13Z"/>
  <path class="cls-1" d="M49.93,27.8c0-.66-.01-1.33,0-1.99.02-.75.46-1.24,1.1-1.24.64,0,1.09.48,1.1,1.24.02,1.37.02,2.75,0,4.12,0,.75-.46,1.24-1.1,1.24-.64,0-1.08-.48-1.1-1.24-.02-.71,0-1.42,0-2.13Z"/>
  <path class="cls-1" d="M45.52,36.75c0,.66.01,1.33,0,1.99-.02.76-.45,1.24-1.09,1.25-.64,0-1.1-.48-1.11-1.23-.02-1.37-.02-2.75,0-4.12,0-.76.45-1.24,1.09-1.25.64,0,1.09.48,1.11,1.23.02.71,0,1.42,0,2.13Z"/>
  <path class="cls-1" d="M52.12,20.18c0,.39.04.78,0,1.16-.08.59-.45.94-1.05.99-.55.04-1.07-.4-1.11-1-.05-.8-.05-1.6,0-2.4.04-.59.44-.94,1.04-.99.55-.04,1.05.4,1.11,1,.04.41,0,.82,0,1.23Z"/>
  <path class="cls-1" d="M43.33,20.11c0-.39-.04-.78,0-1.16.07-.59.45-.94,1.05-.99.55-.04,1.07.4,1.11.99.05.8.05,1.6,0,2.4-.04.59-.44.94-1.04.99-.55.04-1.05-.4-1.11-.99-.04-.41,0-.82,0-1.23Z"/>
  <path class="cls-1" d="M45.51,70.91c0,.37.02.73,0,1.1-.05.65-.53,1.09-1.11,1.08-.56-.01-1.03-.44-1.07-1.05-.04-.75-.04-1.51,0-2.26.03-.65.52-1.09,1.11-1.08.59.01,1.03.46,1.08,1.12.02.36,0,.73,0,1.1,0,0,0,0,0,0Z"/>
  <path class="cls-1" d="M49.95,70.85c0-.39-.04-.78,0-1.16.07-.59.45-.94,1.05-.99.55-.04,1.07.4,1.11.99.05.8.05,1.6,0,2.4-.04.59-.44.94-1.04.99-.55.04-1.05-.4-1.11-.99-.04-.41,0-.82,0-1.23Z"/>
  <path class="cls-1" d="M32.28,37.83c0,.69.02,1.37,0,2.06-.02.71-.45,1.18-1.07,1.2-.63.02-1.12-.47-1.13-1.21-.02-1.4-.02-2.79,0-4.19,0-.71.45-1.18,1.06-1.2.63-.02,1.11.47,1.13,1.21.02.71,0,1.42,0,2.13Z"/>
  <path class="cls-1" d="M37.8,37.87c0,.66.01,1.33,0,1.99-.02.76-.46,1.24-1.1,1.24-.64,0-1.09-.49-1.1-1.24-.02-1.37-.02-2.75,0-4.12,0-.76.46-1.24,1.1-1.24.64,0,1.08.49,1.1,1.24.02.71,0,1.42,0,2.13Z"/>
  <path class="cls-1" d="M26.76,46.62c0,.69.01,1.37,0,2.06-.02.76-.46,1.24-1.1,1.24-.64,0-1.09-.49-1.1-1.24-.02-1.37-.02-2.75,0-4.12,0-.75.46-1.24,1.1-1.24.64,0,1.07.49,1.1,1.24,0,.05,0,.09,0,.14,0,.64,0,1.28,0,1.92Z"/>
  <path class="cls-1" d="M30.07,46.62c0-.69-.01-1.37,0-2.06.02-.75.46-1.24,1.1-1.24.64,0,1.09.48,1.1,1.24.02,1.37.02,2.75,0,4.12,0,.75-.46,1.24-1.1,1.24-.64,0-1.08-.48-1.1-1.24-.02-.69,0-1.37,0-2.06Z"/>
  <path class="cls-1" d="M37.79,46.59c0,.71.02,1.42,0,2.13-.02.71-.46,1.18-1.07,1.2-.64.02-1.11-.47-1.12-1.21-.02-1.4-.02-2.79,0-4.19,0-.71.46-1.18,1.07-1.2.64-.02,1.1.47,1.12,1.21.02.69,0,1.37,0,2.06Z"/>
  <path class="cls-1" d="M30.07,55.38c0-.66-.01-1.33,0-1.99.02-.76.46-1.24,1.1-1.24.64,0,1.09.48,1.1,1.24.02,1.37.02,2.75,0,4.12,0,.76-.46,1.24-1.1,1.24-.64,0-1.08-.48-1.1-1.24-.02-.71,0-1.42,0-2.13Z"/>
  <path class="cls-1" d="M37.8,55.46c0,.69.01,1.37,0,2.06-.02.75-.47,1.24-1.11,1.23-.63,0-1.08-.49-1.09-1.25-.02-1.37-.02-2.75,0-4.12,0-.75.47-1.24,1.11-1.23.63,0,1.07.49,1.09,1.25.02.69,0,1.37,0,2.06Z"/>
  <path class="cls-1" d="M26.76,64.29c0,.69.02,1.37,0,2.06-.02.75-.48,1.23-1.12,1.22-.61-.01-1.06-.48-1.07-1.19-.02-1.4-.02-2.79,0-4.19,0-.75.48-1.23,1.12-1.22.61.01,1.05.48,1.07,1.19.02.71,0,1.42,0,2.13Z"/>
  <path class="cls-1" d="M35.59,64.2c0-.66-.01-1.33,0-1.99.02-.76.46-1.24,1.1-1.24.64,0,1.09.49,1.1,1.24.02,1.37.02,2.75,0,4.12,0,.76-.46,1.24-1.1,1.24-.64,0-1.08-.49-1.1-1.24-.02-.71,0-1.42,0-2.13Z"/>
  <path class="cls-1" d="M26.76,55.43c0,.69.01,1.37,0,2.06-.02.76-.45,1.24-1.09,1.25-.64,0-1.1-.47-1.11-1.23-.02-1.37-.02-2.75,0-4.12,0-.76.45-1.24,1.09-1.25.64,0,1.09.47,1.11,1.23.02.69,0,1.37,0,2.06Z"/>
  <path class="cls-1" d="M26.76,37.84c0,.69.02,1.37,0,2.06-.02.71-.46,1.18-1.07,1.2-.64.02-1.11-.47-1.12-1.21-.02-1.4-.02-2.79,0-4.19,0-.71.46-1.18,1.07-1.2.64-.02,1.09.47,1.13,1.21,0,.05,0,.09,0,.14,0,.66,0,1.33,0,1.99Z"/>
  <path class="cls-1" d="M32.28,29.67c0,.6.02,1.2,0,1.8-.02.62-.45,1.03-1.07,1.05-.63.02-1.12-.41-1.13-1.05-.02-1.22-.02-2.44,0-3.65,0-.62.45-1.03,1.06-1.05.63-.02,1.11.41,1.13,1.05.02.62,0,1.24,0,1.86Z"/>
  <path class="cls-1" d="M37.8,29.7c0,.58.01,1.16,0,1.74-.02.66-.46,1.08-1.1,1.08-.64,0-1.09-.42-1.1-1.08-.02-1.2-.02-2.4,0-3.59,0-.66.46-1.08,1.1-1.08.64,0,1.08.42,1.1,1.08.02.62,0,1.24,0,1.86Z"/>
  <path class="cls-1" d="M26.76,29.67c0,.6.02,1.2,0,1.8-.02.62-.46,1.03-1.07,1.05-.64.02-1.11-.41-1.12-1.06-.02-1.22-.02-2.44,0-3.65,0-.62.46-1.03,1.07-1.05.64-.02,1.09.41,1.13,1.06,0,.04,0,.08,0,.12,0,.58,0,1.16,0,1.74Z"/>
  <path class="cls-1" d="M32.28,81.42c0,.6.02,1.2,0,1.8-.02.62-.45,1.03-1.07,1.05-.63.02-1.12-.41-1.13-1.05-.02-1.22-.02-2.44,0-3.65,0-.62.45-1.03,1.06-1.05.63-.02,1.11.41,1.13,1.05.02.62,0,1.24,0,1.86Z"/>
  <path class="cls-1" d="M37.8,81.45c0,.58.01,1.16,0,1.74-.02.66-.46,1.08-1.1,1.08-.64,0-1.09-.42-1.1-1.08-.02-1.2-.02-2.4,0-3.59,0-.66.46-1.08,1.1-1.08.64,0,1.08.42,1.1,1.08.02.62,0,1.24,0,1.86Z"/>
  <path class="cls-1" d="M26.76,81.42c0,.6.02,1.2,0,1.8-.02.62-.46,1.03-1.07,1.05-.64.02-1.11-.41-1.12-1.06-.02-1.22-.02-2.44,0-3.65,0-.62.46-1.03,1.07-1.05.64-.02,1.09.41,1.13,1.06,0,.04,0,.08,0,.12,0,.58,0,1.16,0,1.74Z"/>
  <path class="cls-1" d="M26.76,73.17c0,.66.01,1.33,0,1.99-.02.76-.46,1.24-1.1,1.24-.64,0-1.09-.49-1.1-1.24-.02-1.37-.02-2.75,0-4.12,0-.76.46-1.24,1.1-1.24.64,0,1.08.49,1.1,1.24.02.71,0,1.42,0,2.13Z"/>
  <path class="cls-1" d="M30.07,73.08c0-.66-.01-1.33,0-1.99.02-.81.45-1.3,1.12-1.29.63.01,1.07.5,1.08,1.25.01,1.37.02,2.75,0,4.12,0,.75-.47,1.23-1.11,1.22-.63-.01-1.05-.5-1.09-1.25,0-.05,0-.09,0-.14,0-.64,0-1.28,0-1.92Z"/>
  <path class="cls-1" d="M37.8,73.12c0,.69.02,1.37,0,2.06-.02.75-.48,1.23-1.12,1.22-.61-.01-1.07-.48-1.08-1.19-.02-1.4-.02-2.79,0-4.19,0-.75.48-1.23,1.12-1.22.63.01,1.06.5,1.08,1.26.02.69,0,1.37,0,2.06Z"/>
  <path class="cls-1" d="M32.28,64.3c0,.69.02,1.37,0,2.06-.02.74-.5,1.23-1.13,1.21-.61-.02-1.06-.49-1.07-1.2-.02-1.4-.02-2.79,0-4.19.01-.74.49-1.23,1.13-1.21.61.02,1.05.49,1.07,1.2.02.71,0,1.42,0,2.13Z"/>
  <path class="cls-1" d="M65.38,62.76c0-.76-.01-1.52,0-2.27.01-.77.44-1.26,1.07-1.28.65-.02,1.12.49,1.13,1.29.01,1.49.01,2.98,0,4.48,0,.78-.42,1.24-1.07,1.26-.69.02-1.11-.45-1.13-1.27-.01-.73,0-1.47,0-2.2Z"/>
  <path class="cls-1" d="M67.58,72.47c0,.76.02,1.52,0,2.27-.02.74-.5,1.24-1.13,1.22-.61-.02-1.06-.5-1.06-1.21-.02-1.54-.02-3.08,0-4.61,0-.76.46-1.21,1.13-1.2.63.02,1.05.46,1.06,1.19.02.78,0,1.56,0,2.34Z"/>
  <path class="cls-1" d="M62.06,62.69c0,.78.02,1.56,0,2.34-.02.76-.46,1.22-1.12,1.2-.63-.01-1.06-.46-1.07-1.19-.02-1.54-.02-3.08,0-4.61,0-.75.49-1.24,1.12-1.22.61.02,1.05.49,1.07,1.21.02.76,0,1.51,0,2.27Z"/>
  <path class="cls-1" d="M73.1,62.75c0,.76.02,1.52,0,2.27-.02.76-.46,1.22-1.12,1.2-.63-.01-1.06-.46-1.07-1.19-.02-1.54-.02-3.08,0-4.61,0-.75.49-1.24,1.12-1.22.61.02,1.05.49,1.07,1.21.02.78,0,1.56,0,2.34Z"/>
  <path class="cls-1" d="M62.07,72.44c0,.76.01,1.52,0,2.27-.02.75-.47,1.25-1.1,1.25-.63,0-1.09-.5-1.1-1.25-.02-1.51-.02-3.03,0-4.55,0-.77.44-1.23,1.1-1.23.66,0,1.08.46,1.1,1.23.02.76,0,1.52,0,2.27Z"/>
  <path class="cls-1" d="M70.89,72.38c0-.73-.01-1.47,0-2.2.02-.78.43-1.24,1.08-1.24.66,0,1.1.44,1.11,1.21.02,1.51.02,3.03,0,4.55,0,.76-.45,1.25-1.08,1.27-.65.01-1.1-.5-1.12-1.3-.01-.76,0-1.52,0-2.27Z"/>
  <path class="cls-1" d="M67.57,54.35c0,.39.03.78,0,1.16-.06.61-.53,1.03-1.09,1.02-.56,0-1.04-.43-1.08-1.04-.04-.77-.04-1.55,0-2.33.03-.61.53-1.03,1.09-1.02.56,0,1.02.43,1.08,1.04.04.38,0,.78,0,1.16Z"/>
  <path class="cls-1" d="M73.09,54.34c0,.39.03.78,0,1.16-.06.61-.52,1.03-1.08,1.04-.56,0-1.05-.42-1.09-1.02-.04-.77-.04-1.55,0-2.33.03-.61.52-1.03,1.07-1.04.56,0,1.01.42,1.1,1.02,0,.05,0,.09,0,.14,0,.34,0,.69,0,1.03,0,0,0,0,0,0Z"/>
  <path class="cls-1" d="M62.06,54.36c0,.37.02.73,0,1.1-.05.65-.52,1.09-1.1,1.09-.56,0-1.04-.43-1.07-1.04-.04-.77-.04-1.55,0-2.33.03-.6.54-1.03,1.09-1.02.56,0,1.02.43,1.07,1.04.04.39,0,.78,0,1.16h0Z"/>
</svg>