<?xml version="1.0" encoding="UTF-8"?>
<svg id="Capa_1" data-name="Capa 1" xmlns="http://www.w3.org/2000/svg" viewBox="0 0 100 100">
  <defs>
    <style>
      .cls-1 {
        fill: #000;
        stroke-width: 0px;
      }
    </style>
  </defs>
  <path class="cls-1" d="M53.55,15.67c1.57.31,3.16.53,4.7.94,4.79,1.27,9.14,3.39,12.76,6.84,3.51,3.35,5.37,7.54,6.1,12.28.61,3.99.1,7.9-.72,11.81-1.01,4.77-1.89,9.57-2.8,14.36-.47,2.47-.17,4.88.64,7.24,1.48,4.36,2.96,8.73,4.45,13.09.36,1.07.2,1.68-.53,1.91-.67.21-1.15-.17-1.5-1.22-1.48-4.36-2.95-8.73-4.45-13.09-1.16-3.35-1.12-6.71-.4-10.15,1.1-5.28,2.22-10.56,3.09-15.87.93-5.66.26-11.13-3-16.04-2.21-3.33-5.39-5.52-8.95-7.22-5.54-2.65-11.31-3.54-17.3-2.07-5.1,1.26-9.41,3.91-12.55,8.21-1.46,2-2.15,4.36-2.64,6.74-.45,2.17-.58,4.41-.95,6.6-.21,1.29-.47,2.6-.94,3.8-1.67,4.27-3.44,8.51-5.17,12.75-.47,1.17-.27,1.62.91,2.01.93.31,1.86.6,2.79.91,1.83.62,2.67,1.78,2.68,3.69,0,1.7,0,3.39,0,5.09.01,3,1.95,4.92,4.96,4.92,2.21,0,4.42,0,6.63,0,2.58.01,4.26,1.96,3.95,4.53-.17,1.41-.32,2.82-.48,4.27h7.28c.01-.24.03-.47.03-.71,0-4.55,0-9.1.01-13.65,0-.5-.16-.74-.59-.97-6.36-3.35-9.61-8.81-10.59-15.76-.81-5.76.81-10.99,3.69-15.9,2.31-3.94,5.23-7.38,8.66-10.39.67-.59,1.19-.61,1.75-.02,4.64,4.84,8.47,10.21,10.33,16.73,2.39,8.38.28,15.76-5.53,22.13-1.36,1.5-3.06,2.59-4.94,3.36-.49.2-.66.44-.66.97.02,4.93.01,9.86.01,14.79,0,1.32-.28,1.6-1.62,1.6-2.88,0-5.76,0-8.63,0-1.21,0-1.57-.37-1.44-1.59.18-1.71.38-3.41.59-5.11.16-1.27-.56-2.12-1.85-2.13-2.23-.01-4.46,0-6.69,0-4.05,0-6.97-2.88-7.01-6.93-.02-1.67,0-3.35,0-5.02,0-1.24-.22-1.53-1.41-1.93-.97-.32-1.95-.63-2.92-.96-1.94-.66-2.79-2.48-2.02-4.39,1.73-4.27,3.46-8.54,5.22-12.8.59-1.42.88-2.88.96-4.41.2-3.93,1.07-7.72,2.66-11.32,1.38-3.12,3.78-5.37,6.51-7.29,3.69-2.59,7.78-4.12,12.27-4.52.13-.01.25-.08.37-.12,1.43,0,2.86,0,4.28,0ZM54.28,64.92c1-.64,1.86-1.14,2.66-1.72,5.01-3.64,8.71-12.68,6.71-20.11-1.17-4.35-3.22-8.24-5.86-11.85-1.13-1.54-2.37-3-3.57-4.51-.18.15-.27.22-.35.3-3.02,2.85-5.62,6.04-7.67,9.65-2.67,4.69-4,9.67-2.95,15.08.96,4.9,3.16,9.07,7.42,11.93.44.29.89.56,1.41.88.03-.25.05-.4.05-.54,0-3.88.01-7.76-.02-11.64,0-.33-.21-.72-.43-.99-1.51-1.87-3.06-3.72-4.59-5.58-.52-.64-.51-1.29.02-1.7.5-.39,1.12-.26,1.63.34.71.86,1.42,1.72,2.13,2.58.37.45.76.9,1.26,1.5v-.93c0-2.86,0-5.71,0-8.57,0-.24,0-.49.05-.73.12-.55.49-.84,1.05-.83.57.01.92.32,1.01.88.04.26.03.53.03.8,0,4.91,0,9.82,0,14.72v.69c1.36-2.02,2.58-4.06,3.8-6.1.14-.23.26-.47.42-.68.36-.5.91-.64,1.41-.36.51.29.68.88.42,1.45-.07.16-.18.31-.27.46-1.81,3.04-3.63,6.09-5.44,9.13-.14.24-.31.52-.32.79-.03,1.8-.01,3.61-.01,5.67Z"/>
</svg>