<?xml version="1.0" encoding="UTF-8"?>
<svg id="Capa_1" data-name="Capa 1" xmlns="http://www.w3.org/2000/svg" viewBox="0 0 100 100">
  <defs>
    <style>
      .cls-1 {
        fill: #000;
        stroke-width: 0px;
      }
    </style>
  </defs>
  <path class="cls-1" d="M49.92,29.6c11.76,0,23.51,0,35.27,0,1.48,0,1.8.32,1.8,1.79,0,12.35,0,24.71,0,37.06,0,1.47-.32,1.8-1.79,1.8-23.51,0-47.03,0-70.54,0-1.47,0-1.79-.32-1.79-1.79,0-12.35,0-24.71,0-37.06,0-1.48.32-1.79,1.79-1.79,11.76,0,23.51,0,35.27,0ZM84.56,32.05H15.31v35.77h69.25v-35.77Z"/>
  <path class="cls-1" d="M61.88,18.84c0-.44-.02-.81,0-1.17.07-1,.97-1.56,1.8-1.03,2.44,1.58,4.86,3.2,7.26,4.84.71.49.69,1.41-.02,1.9-2.38,1.63-4.78,3.23-7.2,4.8-.86.56-1.78.01-1.84-1.03-.02-.35,0-.69,0-1.15h-.9c-7.86,0-15.73,0-23.59,0-1.51,0-1.81-.31-1.81-1.85,0-1.27,0-2.54,0-3.81,0-1.11.41-1.52,1.54-1.52,7.94,0,15.88,0,23.82,0,.29,0,.58,0,.95,0ZM37.97,23.62h.98c7.84,0,15.68,0,23.51-.01.96,0,1.72.15,1.86,1.33,1.29-.86,2.5-1.67,3.77-2.52-1.32-.88-2.51-1.67-3.72-2.48-.4,1.12-.63,1.28-1.8,1.28-7.89,0-15.77,0-23.66,0h-.91c-.01.19-.03.31-.03.43,0,.62,0,1.24,0,1.96Z"/>
  <path class="cls-1" d="M37.97,81.01c0,.33,0,.55,0,.77.03.6-.06,1.15-.66,1.47-.61.33-1.09.02-1.58-.31-1.86-1.25-3.73-2.49-5.59-3.73-.39-.26-.8-.51-1.18-.79-.75-.57-.77-1.48,0-2.01,2.35-1.6,4.71-3.17,7.08-4.72.94-.61,1.87-.06,1.92,1.06.01.32,0,.64,0,1.07h.9c7.9,0,15.79,0,23.69,0,1.37,0,1.72.35,1.72,1.72,0,1.3,0,2.59,0,3.89,0,1.17-.4,1.57-1.57,1.57-7.92,0-15.84,0-23.76,0h-.97ZM35.49,79.91c.36-1.11.61-1.29,1.73-1.29,7.92,0,15.84,0,23.76,0h.86v-2.39h-.91c-7.87,0-15.74,0-23.61.01-.96,0-1.65-.22-1.81-1.33-1.28.86-2.48,1.67-3.75,2.52,1.32.88,2.52,1.67,3.72,2.48Z"/>
  <path class="cls-1" d="M34.38,22.45c0,.75.01,1.49,0,2.24-.02.84-.46,1.3-1.29,1.31-1.12.02-2.24.02-3.36,0-.84-.01-1.3-.46-1.31-1.29-.02-1.52-.02-3.04,0-4.56,0-.84.46-1.3,1.29-1.31,1.12-.02,2.24-.02,3.36,0,.87.01,1.3.47,1.32,1.37.01.75,0,1.49,0,2.24ZM31.93,23.6v-2.32h-1.09v2.32h1.09Z"/>
  <path class="cls-1" d="M65.47,77.43c0-.77-.02-1.54,0-2.32.02-.8.46-1.25,1.26-1.27,1.15-.02,2.29-.02,3.44,0,.8.01,1.26.46,1.27,1.26.02,1.54.02,3.09,0,4.63-.01.8-.47,1.25-1.26,1.27-1.15.02-2.29.02-3.44,0-.8-.01-1.25-.47-1.27-1.26-.02-.77,0-1.54,0-2.32ZM69.01,78.58v-2.3h-1.11v2.3h1.11Z"/>
  <path class="cls-1" d="M50,34.38c7.74,0,15.49,0,23.23,0,1.42,0,1.71.26,1.81,1.64.22,2.96,2.64,5.33,5.61,5.52,1.2.08,1.54.43,1.55,1.6,0,4.51,0,9.02,0,13.52,0,1.2-.34,1.56-1.52,1.63-3.05.18-5.47,2.6-5.65,5.64-.07,1.18-.43,1.52-1.62,1.52-15.66,0-31.33,0-46.99,0-1.19,0-1.54-.34-1.62-1.53-.19-3.05-2.6-5.46-5.66-5.63-1.14-.07-1.51-.43-1.51-1.57,0-4.53,0-9.06,0-13.6,0-1.16.35-1.53,1.48-1.59,3.1-.18,5.51-2.59,5.69-5.68.07-1.13.44-1.48,1.59-1.48,7.87,0,15.74,0,23.61,0ZM72.7,36.81H27.15c-.85,3.91-3.22,6.26-7.06,7.08v12.07c3.91.86,6.23,3.22,7.06,7.06h45.58c.32-1.84,1.1-3.4,2.39-4.68,1.29-1.28,2.86-2.04,4.65-2.36v-12.1c-3.89-.85-6.23-3.19-7.07-7.07Z"/>
  <path class="cls-1" d="M39.17,49.91c.02-5.96,4.87-10.78,10.81-10.74,5.96.03,10.73,4.87,10.71,10.84-.03,5.92-4.91,10.71-10.88,10.67-5.85-.04-10.66-4.91-10.63-10.77ZM58.29,49.89c0-4.6-3.79-8.36-8.38-8.34-4.64.02-8.37,3.79-8.36,8.44.01,4.55,3.79,8.3,8.34,8.3,4.65,0,8.4-3.75,8.39-8.4Z"/>
</svg>