<?xml version="1.0" encoding="UTF-8"?>
<svg id="Capa_1" data-name="Capa 1" xmlns="http://www.w3.org/2000/svg" viewBox="0 0 100 100">
  <defs>
    <style>
      .cls-1 {
        stroke-width: 0px;
      }

      .cls-1, .cls-2 {
        fill: #000;
      }

      .cls-2 {
        stroke: #000;
        stroke-miterlimit: 10;
        stroke-width: .67px;
      }
    </style>
  </defs>
  <path class="cls-1" d="M85.96,50.07c-.8,1.11-1.62,2.21-2.39,3.35-.25.37-.45.82-.52,1.26-1.9,13.61-12.12,24.5-25.6,27.2-1.71.34-3.46.49-5.3.74,0,.4,0,.88,0,1.36,0,.74-.3,1.32-.97,1.66-.65.33-1.27.21-1.84-.21-.59-.43-1.2-.82-1.75-1.29-.99-.85-2.11-1.25-3.4-1.43-2.67-.37-5.22-1.21-7.68-2.32-.7-.32-.96-.86-.71-1.45.24-.57.82-.75,1.55-.47.2.08.38.17.58.24,1.05.38,2.1.76,3.16,1.14.15.05.31.07.54-.02-.37-.28-.75-.55-1.12-.83-1.19-.9-1.2-2.14,0-3.02.78-.58,1.57-1.15,2.44-1.79-.71-.26-1.33-.45-1.92-.7-8.87-3.73-13.96-10.38-15.34-19.89-.08-.53-.09-1.07-.12-1.61-.08-1.32.62-2.07,1.95-2.09.22,0,.45,0,.83,0-1.99-2.74-3.9-5.35-5.85-8.04-1.94,2.67-3.85,5.28-5.85,8.04.4,0,.67,0,.93,0,1.29.01,1.91.6,2.03,1.9.13,1.46.19,2.94.45,4.38,1.56,8.56,6.06,15.2,13.24,20.05.21.14.44.27.62.45.37.38.43.83.14,1.28-.28.44-.71.6-1.22.42-.22-.08-.42-.21-.61-.34-8.09-5.44-12.97-12.93-14.43-22.6-.17-1.1-.24-2.22-.37-3.44-.36,0-.75-.02-1.13,0-.83.04-1.54-.17-1.94-.96-.39-.77-.13-1.43.36-2.07.64-.84,1.27-1.68,1.85-2.55.25-.37.45-.82.51-1.26,1.6-10.53,7.11-18.38,16.24-23.76.5-.29.99-.45,1.49-.04.63.52.44,1.29-.36,1.83-1.68,1.13-3.44,2.19-4.98,3.49-4.71,3.97-7.89,8.97-9.44,14.99.34-.45.67-.9,1.01-1.35.85-1.11,2.09-1.11,2.94,0,.6.79,1.17,1.6,1.83,2.5.22-.64.38-1.17.59-1.68,3.7-9,10.38-14.19,20.01-15.58.48-.07.98-.08,1.47-.11,1.46-.11,2.2.57,2.21,2.02,0,.19,0,.37,0,.74,2.73-1.99,5.35-3.89,8.04-5.85-2.67-1.94-5.29-3.85-8.04-5.86,0,.44,0,.75,0,1.07-.02,1.12-.62,1.75-1.75,1.88-1.72.19-3.45.27-5.14.59-1.62.31-3.2.85-4.78,1.33-.57.17-1.07.18-1.43-.36-.4-.58-.15-1.35.6-1.57,2.24-.63,4.49-1.24,6.76-1.74,1.15-.26,2.36-.27,3.63-.4.05-1.21-.28-2.62,1.26-3.27.33,0,.65,0,.98,0,1.11.8,2.22,1.62,3.35,2.39.37.25.82.42,1.26.52.86.19,1.75.28,2.62.47,12.9,2.73,23.17,13.84,24.89,26.92.15,1.15.25,2.31.38,3.55.65,0,1.28-.05,1.9.01.7.07,1.04.64,1.36,1.19v.98ZM72.46,47.84c-.08-.77-.14-1.42-.23-2.06-1.17-8.81-8.08-16.37-16.78-18.34-.31-.07-.74.04-1.01.22-1.23.84-2.43,1.74-3.64,2.62-.59.43-1.23.56-1.9.2-.67-.35-.94-.94-.93-1.68,0-.41,0-.82,0-1.21-.16-.02-.21-.03-.25-.03-9.65.46-18.09,7.57-20.16,16.99-.06.29.04.7.22.95.86,1.25,1.77,2.47,2.66,3.69.42.57.53,1.19.21,1.84-.34.67-.92.97-1.66.97-.41,0-.83,0-1.24,0-.02.15-.03.22-.03.28.4,9.54,7.66,18.14,17.02,20.14.27.06.65-.04.89-.2,1.27-.88,2.5-1.8,3.75-2.7.58-.42,1.19-.51,1.84-.18.64.34.93.89.94,1.6,0,.43,0,.87,0,1.36.76-.08,1.41-.14,2.05-.23,8.8-1.18,16.37-8.1,18.35-16.78.07-.31-.04-.74-.22-1.01-.86-1.25-1.77-2.46-2.66-3.7-.42-.58-.51-1.2-.17-1.84.34-.64.9-.93,1.61-.93.42,0,.83,0,1.35,0ZM57.16,25.67c.25.09.35.13.46.16,4.47,1.44,8.25,3.92,11.27,7.52,3.54,4.22,5.4,9.12,5.67,14.61.06,1.19-.66,1.95-1.85,1.97-.26,0-.53,0-.93,0,2.01,2.76,3.91,5.37,5.86,8.04,1.96-2.69,3.86-5.3,5.83-8.01-.27-.02-.4-.04-.53-.03-1.72.16-2.41-.73-2.44-2.36-.02-1.19-.13-2.38-.33-3.55-1.46-8.37-5.69-15.01-12.6-19.94-2.8-1.99-5.88-3.41-9.22-4.25.4.36.83.67,1.25.99,1.23.93,1.22,2.15-.01,3.07-.77.57-1.54,1.13-2.42,1.76ZM74.4,57.13c-.08.05-.12.06-.12.08-.07.17-.14.34-.2.52-1,3.08-2.55,5.86-4.68,8.3-4.59,5.24-10.4,8-17.34,8.4-1.23.07-1.98-.66-2-1.89,0-.24,0-.49,0-.88-2.75,2-5.36,3.9-8.04,5.85,2.68,1.95,5.31,3.86,8.04,5.85,0-.31.01-.45,0-.58-.15-1.74.77-2.37,2.33-2.4,1.19-.03,2.39-.11,3.55-.33,10.89-2.04,18.58-8.15,23.06-18.28.5-1.13.84-2.32,1.25-3.49-.47.37-.78.8-1.1,1.23-.9,1.18-2.13,1.18-3.02-.02-.57-.77-1.13-1.54-1.71-2.34Z"/>
  <path class="cls-1" d="M65.8,49.96c-.02,8.7-7.05,15.72-15.75,15.72-8.73,0-15.78-7.08-15.73-15.8.04-8.71,7.09-15.71,15.78-15.68,8.71.03,15.72,7.07,15.7,15.76ZM50.09,36.3c-7.54-.02-13.64,6.05-13.67,13.59-.03,7.54,6.03,13.64,13.57,13.68,7.56.04,13.7-6.06,13.7-13.62,0-7.54-6.06-13.63-13.61-13.65Z"/>
  <path class="cls-1" d="M39.16,49.95c-.02-5.76,4.37-10.4,10.3-10.89,5.39-.45,10.53,3.68,11.34,9.21.17,1.16.02,2.37-.04,3.55-.03.54-.39.89-.96.93-.72.05-1.1-.46-1.09-1.29.01-1.14.12-2.31-.1-3.4-.93-4.58-5.38-7.56-10.01-6.8-4.53.74-7.75,4.98-7.27,9.57.37,3.57,2.86,6.54,6.3,7.53,3.45.99,7.12-.2,9.35-3.03.07-.09.14-.19.21-.28.47-.58,1.09-.7,1.58-.32.5.4.56,1.01.07,1.61-.55.66-1.1,1.35-1.77,1.88-3.52,2.82-7.42,3.4-11.55,1.58-3.92-1.73-6.35-5.62-6.36-9.85Z"/>
  <path class="cls-2" d="M52.94,53.64c0,.17-.01.3-.04.39s-.07.15-.13.21-.15.12-.28.2-.29.15-.47.22-.4.13-.65.17-.51.07-.8.07c-.5,0-.95-.07-1.35-.21s-.74-.35-1.04-.63-.53-.62-.72-1.02-.32-.87-.41-1.39h-.85c-.08,0-.14-.04-.18-.11s-.06-.2-.06-.37c0-.08,0-.16.01-.22s.02-.11.04-.15.04-.07.07-.09.06-.03.1-.03h.8c0-.09,0-.19-.01-.29s0-.2,0-.3c0-.12,0-.24,0-.36s0-.24.01-.34h-.8c-.07,0-.13-.04-.17-.11s-.06-.2-.06-.38c0-.08,0-.16.02-.22s.03-.11.05-.15.04-.07.07-.09.06-.03.1-.03h.9c.09-.5.23-.96.42-1.37s.42-.76.71-1.05.63-.51,1.03-.67.86-.24,1.38-.24c.23,0,.46.02.69.06s.43.09.61.15.34.12.47.2.22.13.28.17.09.09.11.13.04.08.06.13.03.11.03.18.01.15.01.24c0,.09,0,.16-.01.23s-.02.11-.04.15-.04.07-.06.09-.06.03-.1.03c-.07,0-.16-.04-.27-.11s-.24-.15-.4-.24-.35-.17-.57-.24-.49-.11-.8-.11-.61.05-.86.15-.46.25-.64.44-.33.43-.44.71-.21.6-.27.95h2.27s.07,0,.1.03.06.05.08.09.04.09.05.15.02.13.02.22c0,.18-.02.3-.07.38s-.11.11-.19.11h-2.38c0,.1-.02.21-.02.31s0,.22,0,.34c0,.11,0,.21,0,.32s.01.21.02.32h2.38s.07,0,.1.03.06.05.08.09.04.09.05.15.02.13.02.22c0,.17-.02.3-.07.37s-.11.11-.19.11h-2.29c.05.35.14.65.26.93s.27.5.46.69.41.32.67.42.56.14.91.14c.32,0,.6-.04.83-.12s.43-.17.59-.26.3-.18.4-.26.18-.12.25-.12c.03,0,.06,0,.09.03s.04.05.06.09.03.1.03.18,0,.17,0,.28Z"/>
</svg>